<svg width="13" height="7" viewBox="0 0 13 7" fill="none" xmlns="http://www.w3.org/2000/svg">
<path fill-rule="evenodd" clip-rule="evenodd" d="M0.961542 0.410387C1.00203 0.372703 1.05012 0.342804 1.10308 0.322404C1.15603 0.302004 1.21279 0.291504 1.27012 0.291504C1.32745 0.291504 1.38422 0.302004 1.43717 0.322404C1.49012 0.342804 1.53821 0.372703 1.5787 0.410387L6.50028 4.9806L11.4219 0.410387C11.4624 0.372764 11.5105 0.342919 11.5634 0.322558C11.6164 0.302196 11.6731 0.291716 11.7304 0.291716C11.7877 0.291716 11.8445 0.302196 11.8974 0.322558C11.9504 0.342919 11.9985 0.372764 12.039 0.410387C12.0795 0.448011 12.1117 0.492676 12.1336 0.541834C12.1555 0.590991 12.1668 0.643678 12.1668 0.696886C12.1668 0.750093 12.1555 0.80278 12.1336 0.851938C12.1117 0.901095 12.0795 0.945761 12.039 0.983384L6.80886 5.83929C6.76837 5.87697 6.72027 5.90687 6.66732 5.92727C6.61437 5.94767 6.55761 5.95817 6.50028 5.95817C6.44295 5.95817 6.38618 5.94767 6.33323 5.92727C6.28028 5.90687 6.23218 5.87697 6.1917 5.83929L0.961542 0.983384C0.920954 0.945795 0.888751 0.90114 0.866778 0.851978C0.844806 0.802816 0.833496 0.750112 0.833496 0.696886C0.833496 0.643659 0.844806 0.590955 0.866778 0.541793C0.888751 0.492631 0.920954 0.447977 0.961542 0.410387Z" fill="#D0D0D0"/>
<path fill-rule="evenodd" clip-rule="evenodd" d="M0.961542 0.410387C1.00203 0.372703 1.05012 0.342804 1.10308 0.322404C1.15603 0.302004 1.21279 0.291504 1.27012 0.291504C1.32745 0.291504 1.38422 0.302004 1.43717 0.322404C1.49012 0.342804 1.53821 0.372703 1.5787 0.410387L6.50028 4.9806L11.4219 0.410387C11.4624 0.372764 11.5105 0.342919 11.5634 0.322558C11.6164 0.302196 11.6731 0.291716 11.7304 0.291716C11.7877 0.291716 11.8445 0.302196 11.8974 0.322558C11.9504 0.342919 11.9985 0.372764 12.039 0.410387C12.0795 0.448011 12.1117 0.492676 12.1336 0.541834C12.1555 0.590991 12.1668 0.643678 12.1668 0.696886C12.1668 0.750093 12.1555 0.80278 12.1336 0.851938C12.1117 0.901095 12.0795 0.945761 12.039 0.983384L6.80886 5.83929C6.76837 5.87697 6.72027 5.90687 6.66732 5.92727C6.61437 5.94767 6.55761 5.95817 6.50028 5.95817C6.44295 5.95817 6.38618 5.94767 6.33323 5.92727C6.28028 5.90687 6.23218 5.87697 6.1917 5.83929L0.961542 0.983384C0.920954 0.945795 0.888751 0.90114 0.866778 0.851978C0.844806 0.802816 0.833496 0.750112 0.833496 0.696886C0.833496 0.643659 0.844806 0.590955 0.866778 0.541793C0.888751 0.492631 0.920954 0.447977 0.961542 0.410387Z" fill="#D0D0D0"/>
<path fill-rule="evenodd" clip-rule="evenodd" d="M0.961542 0.410387C1.00203 0.372703 1.05012 0.342804 1.10308 0.322404C1.15603 0.302004 1.21279 0.291504 1.27012 0.291504C1.32745 0.291504 1.38422 0.302004 1.43717 0.322404C1.49012 0.342804 1.53821 0.372703 1.5787 0.410387L6.50028 4.9806L11.4219 0.410387C11.4624 0.372764 11.5105 0.342919 11.5634 0.322558C11.6164 0.302196 11.6731 0.291716 11.7304 0.291716C11.7877 0.291716 11.8445 0.302196 11.8974 0.322558C11.9504 0.342919 11.9985 0.372764 12.039 0.410387C12.0795 0.448011 12.1117 0.492676 12.1336 0.541834C12.1555 0.590991 12.1668 0.643678 12.1668 0.696886C12.1668 0.750093 12.1555 0.80278 12.1336 0.851938C12.1117 0.901095 12.0795 0.945761 12.039 0.983384L6.80886 5.83929C6.76837 5.87697 6.72027 5.90687 6.66732 5.92727C6.61437 5.94767 6.55761 5.95817 6.50028 5.95817C6.44295 5.95817 6.38618 5.94767 6.33323 5.92727C6.28028 5.90687 6.23218 5.87697 6.1917 5.83929L0.961542 0.983384C0.920954 0.945795 0.888751 0.90114 0.866778 0.851978C0.844806 0.802816 0.833496 0.750112 0.833496 0.696886C0.833496 0.643659 0.844806 0.590955 0.866778 0.541793C0.888751 0.492631 0.920954 0.447977 0.961542 0.410387Z" stroke="#D0D0D0" stroke-width="0.5"/>
<path fill-rule="evenodd" clip-rule="evenodd" d="M0.961542 0.410387C1.00203 0.372703 1.05012 0.342804 1.10308 0.322404C1.15603 0.302004 1.21279 0.291504 1.27012 0.291504C1.32745 0.291504 1.38422 0.302004 1.43717 0.322404C1.49012 0.342804 1.53821 0.372703 1.5787 0.410387L6.50028 4.9806L11.4219 0.410387C11.4624 0.372764 11.5105 0.342919 11.5634 0.322558C11.6164 0.302196 11.6731 0.291716 11.7304 0.291716C11.7877 0.291716 11.8445 0.302196 11.8974 0.322558C11.9504 0.342919 11.9985 0.372764 12.039 0.410387C12.0795 0.448011 12.1117 0.492676 12.1336 0.541834C12.1555 0.590991 12.1668 0.643678 12.1668 0.696886C12.1668 0.750093 12.1555 0.80278 12.1336 0.851938C12.1117 0.901095 12.0795 0.945761 12.039 0.983384L6.80886 5.83929C6.76837 5.87697 6.72027 5.90687 6.66732 5.92727C6.61437 5.94767 6.55761 5.95817 6.50028 5.95817C6.44295 5.95817 6.38618 5.94767 6.33323 5.92727C6.28028 5.90687 6.23218 5.87697 6.1917 5.83929L0.961542 0.983384C0.920954 0.945795 0.888751 0.90114 0.866778 0.851978C0.844806 0.802816 0.833496 0.750112 0.833496 0.696886C0.833496 0.643659 0.844806 0.590955 0.866778 0.541793C0.888751 0.492631 0.920954 0.447977 0.961542 0.410387Z" stroke="#D0D0D0" stroke-width="0.5"/>
</svg>
