<svg width="10" height="6" viewBox="0 0 10 6" fill="none" xmlns="http://www.w3.org/2000/svg">
<path fill-rule="evenodd" clip-rule="evenodd" d="M1.09039 1.08392C1.11896 1.05732 1.15291 1.03621 1.19029 1.02181C1.22767 1.00741 1.26774 1 1.30821 1C1.34867 1 1.38874 1.00741 1.42612 1.02181C1.4635 1.03621 1.49745 1.05732 1.52603 1.08392L5.00008 4.30995L8.47413 1.08392C8.50274 1.05736 8.5367 1.03629 8.57407 1.02192C8.61145 1.00755 8.6515 1.00015 8.69196 1.00015C8.73241 1.00015 8.77247 1.00755 8.80984 1.02192C8.84721 1.03629 8.88117 1.05736 8.90978 1.08392C8.93838 1.11048 8.96107 1.142 8.97655 1.1767C8.99203 1.2114 9 1.24859 9 1.28615C9 1.32371 8.99203 1.3609 8.97655 1.3956C8.96107 1.4303 8.93838 1.46183 8.90978 1.48839L5.2179 4.91608C5.18932 4.94268 5.15537 4.96379 5.118 4.97819C5.08062 4.99259 5.04055 5 5.00008 5C4.95961 5 4.91954 4.99259 4.88217 4.97819C4.84479 4.96379 4.81084 4.94268 4.78226 4.91608L1.09039 1.48839C1.06173 1.46185 1.039 1.43033 1.02349 1.39563C1.00798 1.36093 1 1.32372 1 1.28615C1 1.24858 1.00798 1.21138 1.02349 1.17667C1.039 1.14197 1.06173 1.11045 1.09039 1.08392Z" fill="#003154"/>
<path fill-rule="evenodd" clip-rule="evenodd" d="M1.09039 1.08392C1.11896 1.05732 1.15291 1.03621 1.19029 1.02181C1.22767 1.00741 1.26774 1 1.30821 1C1.34867 1 1.38874 1.00741 1.42612 1.02181C1.4635 1.03621 1.49745 1.05732 1.52603 1.08392L5.00008 4.30995L8.47413 1.08392C8.50274 1.05736 8.5367 1.03629 8.57407 1.02192C8.61145 1.00755 8.6515 1.00015 8.69196 1.00015C8.73241 1.00015 8.77247 1.00755 8.80984 1.02192C8.84721 1.03629 8.88117 1.05736 8.90978 1.08392C8.93838 1.11048 8.96107 1.142 8.97655 1.1767C8.99203 1.2114 9 1.24859 9 1.28615C9 1.32371 8.99203 1.3609 8.97655 1.3956C8.96107 1.4303 8.93838 1.46183 8.90978 1.48839L5.2179 4.91608C5.18932 4.94268 5.15537 4.96379 5.118 4.97819C5.08062 4.99259 5.04055 5 5.00008 5C4.95961 5 4.91954 4.99259 4.88217 4.97819C4.84479 4.96379 4.81084 4.94268 4.78226 4.91608L1.09039 1.48839C1.06173 1.46185 1.039 1.43033 1.02349 1.39563C1.00798 1.36093 1 1.32372 1 1.28615C1 1.24858 1.00798 1.21138 1.02349 1.17667C1.039 1.14197 1.06173 1.11045 1.09039 1.08392Z" fill="#003154"/>
<path fill-rule="evenodd" clip-rule="evenodd" d="M1.09039 1.08392C1.11896 1.05732 1.15291 1.03621 1.19029 1.02181C1.22767 1.00741 1.26774 1 1.30821 1C1.34867 1 1.38874 1.00741 1.42612 1.02181C1.4635 1.03621 1.49745 1.05732 1.52603 1.08392L5.00008 4.30995L8.47413 1.08392C8.50274 1.05736 8.5367 1.03629 8.57407 1.02192C8.61145 1.00755 8.6515 1.00015 8.69196 1.00015C8.73241 1.00015 8.77247 1.00755 8.80984 1.02192C8.84721 1.03629 8.88117 1.05736 8.90978 1.08392C8.93838 1.11048 8.96107 1.142 8.97655 1.1767C8.99203 1.2114 9 1.24859 9 1.28615C9 1.32371 8.99203 1.3609 8.97655 1.3956C8.96107 1.4303 8.93838 1.46183 8.90978 1.48839L5.2179 4.91608C5.18932 4.94268 5.15537 4.96379 5.118 4.97819C5.08062 4.99259 5.04055 5 5.00008 5C4.95961 5 4.91954 4.99259 4.88217 4.97819C4.84479 4.96379 4.81084 4.94268 4.78226 4.91608L1.09039 1.48839C1.06173 1.46185 1.039 1.43033 1.02349 1.39563C1.00798 1.36093 1 1.32372 1 1.28615C1 1.24858 1.00798 1.21138 1.02349 1.17667C1.039 1.14197 1.06173 1.11045 1.09039 1.08392Z" stroke="#003154" stroke-width="0.5"/>
<path fill-rule="evenodd" clip-rule="evenodd" d="M1.09039 1.08392C1.11896 1.05732 1.15291 1.03621 1.19029 1.02181C1.22767 1.00741 1.26774 1 1.30821 1C1.34867 1 1.38874 1.00741 1.42612 1.02181C1.4635 1.03621 1.49745 1.05732 1.52603 1.08392L5.00008 4.30995L8.47413 1.08392C8.50274 1.05736 8.5367 1.03629 8.57407 1.02192C8.61145 1.00755 8.6515 1.00015 8.69196 1.00015C8.73241 1.00015 8.77247 1.00755 8.80984 1.02192C8.84721 1.03629 8.88117 1.05736 8.90978 1.08392C8.93838 1.11048 8.96107 1.142 8.97655 1.1767C8.99203 1.2114 9 1.24859 9 1.28615C9 1.32371 8.99203 1.3609 8.97655 1.3956C8.96107 1.4303 8.93838 1.46183 8.90978 1.48839L5.2179 4.91608C5.18932 4.94268 5.15537 4.96379 5.118 4.97819C5.08062 4.99259 5.04055 5 5.00008 5C4.95961 5 4.91954 4.99259 4.88217 4.97819C4.84479 4.96379 4.81084 4.94268 4.78226 4.91608L1.09039 1.48839C1.06173 1.46185 1.039 1.43033 1.02349 1.39563C1.00798 1.36093 1 1.32372 1 1.28615C1 1.24858 1.00798 1.21138 1.02349 1.17667C1.039 1.14197 1.06173 1.11045 1.09039 1.08392Z" stroke="#003154" stroke-width="0.5"/>
</svg>
