<svg width="12" height="12" viewBox="0 0 12 12" fill="none" xmlns="http://www.w3.org/2000/svg">
<path fill-rule="evenodd" clip-rule="evenodd" d="M5.58392 9.90961C5.55732 9.88104 5.53621 9.84709 5.52181 9.80971C5.50741 9.77233 5.5 9.73226 5.5 9.69179C5.5 9.65133 5.50741 9.61126 5.52181 9.57388C5.53621 9.5365 5.55732 9.50255 5.58392 9.47397L8.80995 5.99992L5.58392 2.52587C5.55736 2.49726 5.53629 2.4633 5.52192 2.42593C5.50755 2.38855 5.50015 2.3485 5.50015 2.30804C5.50015 2.26759 5.50755 2.22753 5.52192 2.19016C5.53629 2.15279 5.55736 2.11883 5.58392 2.09022C5.61048 2.06162 5.642 2.03893 5.6767 2.02345C5.7114 2.00797 5.74859 2 5.78615 2C5.82371 2 5.8609 2.00797 5.8956 2.02345C5.9303 2.03893 5.96183 2.06162 5.98839 2.09022L9.41608 5.7821C9.44268 5.81068 9.46379 5.84463 9.47819 5.882C9.49259 5.91938 9.5 5.95945 9.5 5.99992C9.5 6.04039 9.49259 6.08046 9.47819 6.11783C9.46379 6.15521 9.44268 6.18916 9.41608 6.21774L5.98839 9.90961C5.96185 9.93827 5.93033 9.961 5.89563 9.97651C5.86093 9.99202 5.82372 10 5.78615 10C5.74858 10 5.71138 9.99202 5.67667 9.97651C5.64197 9.961 5.61045 9.93827 5.58392 9.90961Z" fill="#003154"/>
<path fill-rule="evenodd" clip-rule="evenodd" d="M5.58392 9.90961C5.55732 9.88104 5.53621 9.84709 5.52181 9.80971C5.50741 9.77233 5.5 9.73226 5.5 9.69179C5.5 9.65133 5.50741 9.61126 5.52181 9.57388C5.53621 9.5365 5.55732 9.50255 5.58392 9.47397L8.80995 5.99992L5.58392 2.52587C5.55736 2.49726 5.53629 2.4633 5.52192 2.42593C5.50755 2.38855 5.50015 2.3485 5.50015 2.30804C5.50015 2.26759 5.50755 2.22753 5.52192 2.19016C5.53629 2.15279 5.55736 2.11883 5.58392 2.09022C5.61048 2.06162 5.642 2.03893 5.6767 2.02345C5.7114 2.00797 5.74859 2 5.78615 2C5.82371 2 5.8609 2.00797 5.8956 2.02345C5.9303 2.03893 5.96183 2.06162 5.98839 2.09022L9.41608 5.7821C9.44268 5.81068 9.46379 5.84463 9.47819 5.882C9.49259 5.91938 9.5 5.95945 9.5 5.99992C9.5 6.04039 9.49259 6.08046 9.47819 6.11783C9.46379 6.15521 9.44268 6.18916 9.41608 6.21774L5.98839 9.90961C5.96185 9.93827 5.93033 9.961 5.89563 9.97651C5.86093 9.99202 5.82372 10 5.78615 10C5.74858 10 5.71138 9.99202 5.67667 9.97651C5.64197 9.961 5.61045 9.93827 5.58392 9.90961Z" fill="#003154"/>
<path fill-rule="evenodd" clip-rule="evenodd" d="M5.58392 9.90961C5.55732 9.88104 5.53621 9.84709 5.52181 9.80971C5.50741 9.77233 5.5 9.73226 5.5 9.69179C5.5 9.65133 5.50741 9.61126 5.52181 9.57388C5.53621 9.5365 5.55732 9.50255 5.58392 9.47397L8.80995 5.99992L5.58392 2.52587C5.55736 2.49726 5.53629 2.4633 5.52192 2.42593C5.50755 2.38855 5.50015 2.3485 5.50015 2.30804C5.50015 2.26759 5.50755 2.22753 5.52192 2.19016C5.53629 2.15279 5.55736 2.11883 5.58392 2.09022C5.61048 2.06162 5.642 2.03893 5.6767 2.02345C5.7114 2.00797 5.74859 2 5.78615 2C5.82371 2 5.8609 2.00797 5.8956 2.02345C5.9303 2.03893 5.96183 2.06162 5.98839 2.09022L9.41608 5.7821C9.44268 5.81068 9.46379 5.84463 9.47819 5.882C9.49259 5.91938 9.5 5.95945 9.5 5.99992C9.5 6.04039 9.49259 6.08046 9.47819 6.11783C9.46379 6.15521 9.44268 6.18916 9.41608 6.21774L5.98839 9.90961C5.96185 9.93827 5.93033 9.961 5.89563 9.97651C5.86093 9.99202 5.82372 10 5.78615 10C5.74858 10 5.71138 9.99202 5.67667 9.97651C5.64197 9.961 5.61045 9.93827 5.58392 9.90961Z" stroke="#003154" stroke-width="0.5"/>
<path fill-rule="evenodd" clip-rule="evenodd" d="M5.58392 9.90961C5.55732 9.88104 5.53621 9.84709 5.52181 9.80971C5.50741 9.77233 5.5 9.73226 5.5 9.69179C5.5 9.65133 5.50741 9.61126 5.52181 9.57388C5.53621 9.5365 5.55732 9.50255 5.58392 9.47397L8.80995 5.99992L5.58392 2.52587C5.55736 2.49726 5.53629 2.4633 5.52192 2.42593C5.50755 2.38855 5.50015 2.3485 5.50015 2.30804C5.50015 2.26759 5.50755 2.22753 5.52192 2.19016C5.53629 2.15279 5.55736 2.11883 5.58392 2.09022C5.61048 2.06162 5.642 2.03893 5.6767 2.02345C5.7114 2.00797 5.74859 2 5.78615 2C5.82371 2 5.8609 2.00797 5.8956 2.02345C5.9303 2.03893 5.96183 2.06162 5.98839 2.09022L9.41608 5.7821C9.44268 5.81068 9.46379 5.84463 9.47819 5.882C9.49259 5.91938 9.5 5.95945 9.5 5.99992C9.5 6.04039 9.49259 6.08046 9.47819 6.11783C9.46379 6.15521 9.44268 6.18916 9.41608 6.21774L5.98839 9.90961C5.96185 9.93827 5.93033 9.961 5.89563 9.97651C5.86093 9.99202 5.82372 10 5.78615 10C5.74858 10 5.71138 9.99202 5.67667 9.97651C5.64197 9.961 5.61045 9.93827 5.58392 9.90961Z" stroke="#003154" stroke-width="0.5"/>
</svg>
