<svg width="209" height="41" viewBox="0 0 209 41" fill="none" xmlns="http://www.w3.org/2000/svg">
<path fill-rule="evenodd" clip-rule="evenodd" d="M24.7244 0.616651C23.1232 1.00405 21.8448 2.31795 21.5039 3.92638C21.4133 4.35368 21.3942 6.23749 21.393 14.864L21.3917 25.2854L20.9272 25.6008C19.3804 26.6513 18.2263 28.2849 17.7398 30.1125C17.4721 31.118 17.4366 32.8468 17.662 33.8967C18.3359 37.0354 20.6275 39.4916 23.6213 40.2841C24.3016 40.4643 24.5668 40.4923 25.6553 40.4993C26.621 40.5054 27.0482 40.4741 27.5252 40.3624C29.1884 39.9725 30.3926 39.2875 31.5799 38.0558C34.277 35.258 34.7281 30.9036 32.6436 27.7872C32.0918 26.9624 31.4136 26.2544 30.5954 25.6493L29.9993 25.2085L29.9787 14.5126L29.958 3.81678L29.7821 3.35044C29.0064 1.29398 26.8167 0.110417 24.7244 0.616651ZM26.4745 2.18049C27.294 2.42387 27.9849 3.05653 28.2734 3.82773C28.4305 4.24744 28.4326 4.39131 28.4369 14.9873C28.4402 23.0919 28.4642 25.7874 28.5347 25.9903C28.6085 26.2027 28.7511 26.3328 29.2148 26.6105C29.9207 27.0333 31.0972 28.1896 31.4722 28.829C32.0871 29.8778 32.3635 30.916 32.3632 32.1756C32.3628 33.9659 31.7338 35.6017 30.5535 36.8824C29.3681 38.1685 27.8755 38.8616 26.0856 38.957C21.8692 39.1819 18.4598 35.3991 19.1275 31.2368C19.2451 30.5037 19.6001 29.5261 19.9826 28.8823C20.4289 28.1311 21.2792 27.2536 22.072 26.7261C22.4306 26.4875 22.7762 26.2177 22.8401 26.1264C22.9415 25.9816 22.9563 24.594 22.9563 15.2281C22.9563 5.00926 22.9632 4.47345 23.1009 4.03113C23.5574 2.56422 25.0358 1.75327 26.4745 2.18049ZM10.322 2.94826C8.44519 3.26321 6.92781 4.06837 5.62088 5.44282C2.57103 8.65014 2.57103 13.5344 5.62088 16.7418C7.3404 18.5501 9.68484 19.4793 12.1068 19.3124C15.6641 19.0675 18.6404 16.5917 19.571 13.1033C19.7489 12.4366 19.7735 12.1913 19.7735 11.0923C19.7735 9.99329 19.7489 9.74796 19.571 9.08127C18.6143 5.49531 15.5378 3.01154 11.8866 2.87761C11.3012 2.85618 10.7122 2.88278 10.322 2.94826ZM13.1774 4.6048C13.786 4.75978 14.8202 5.22776 15.3423 5.58449C16.6202 6.45771 17.6296 7.89067 18.0403 9.41454C18.2702 10.2678 18.2908 11.8342 18.0823 12.6178C17.5272 14.7042 16.2337 16.2695 14.3387 17.1482C13.3148 17.623 12.7596 17.7383 11.5345 17.7307C10.6303 17.725 10.3795 17.6943 9.79022 17.5172C7.84015 16.9308 6.38989 15.7068 5.55321 13.9408C5.09258 12.9686 4.93988 12.2592 4.93988 11.0923C4.93988 10.2944 4.97633 9.94041 5.10917 9.44943C5.82272 6.81241 7.93707 4.90482 10.6204 4.47697C11.2017 4.38435 12.5824 4.45335 13.1774 4.6048ZM32.0135 4.52328C31.5667 4.77034 31.4956 5.36646 31.8686 5.73947L32.0973 5.96814H33.9066C35.9012 5.96814 36.0754 5.93395 36.2519 5.50759C36.3771 5.20538 36.2983 4.86203 36.0499 4.62851C35.8548 4.44513 35.828 4.44239 34.0394 4.42401C32.5457 4.40868 32.1892 4.4262 32.0135 4.52328ZM9.52626 6.0822C9.22726 6.21222 9.10937 6.41124 9.10937 6.78612C9.10937 7.01323 9.27436 7.31364 9.97421 8.36061C10.7739 9.557 10.8372 9.67904 10.8152 9.98218C10.7918 10.304 10.7857 10.3104 10.4784 10.333C10.1955 10.3537 10.0416 10.2745 8.87147 9.50536C8.15972 9.03754 7.49413 8.63301 7.39227 8.60641C6.86695 8.46896 6.35023 9.06813 6.52844 9.60816C6.59775 9.81805 6.78308 9.98398 7.45157 10.4344C7.91157 10.7445 8.31837 11.0252 8.35553 11.0581C8.39277 11.091 8.01609 11.388 7.51846 11.718C6.78653 12.2033 6.59736 12.3677 6.52782 12.5785C6.33967 13.1484 6.87813 13.7253 7.44625 13.5624C7.57439 13.5257 8.21135 13.1397 8.86177 12.7046C9.96905 11.9641 10.0694 11.9137 10.4374 11.9137H10.8305V12.2284C10.8305 12.4986 10.7091 12.7245 9.96991 13.8304C9.25159 14.905 9.10937 15.1669 9.10937 15.415C9.10937 15.9777 9.56045 16.3121 10.0856 16.1387C10.3195 16.0615 10.4607 15.9052 10.9219 15.2119C11.2272 14.7533 11.5007 14.3512 11.53 14.3185C11.5593 14.2858 11.856 14.6634 12.1893 15.1577C12.7158 15.9383 12.8344 16.0681 13.0911 16.145C13.4838 16.2627 13.8464 16.0846 14.0096 15.6941C14.1683 15.3145 14.116 15.1947 13.1845 13.8019C12.4744 12.7401 12.3951 12.586 12.3951 12.2676V11.9137H12.7671C13.1086 11.9137 13.2382 11.9798 14.3513 12.7217C15.0179 13.1661 15.6482 13.5515 15.7518 13.5782C16.0256 13.6486 16.4338 13.4488 16.5753 13.1754C16.8468 12.6503 16.6784 12.3904 15.6079 11.6825C15.1317 11.3677 14.742 11.1021 14.742 11.0923C14.742 11.0825 15.1317 10.8169 15.6079 10.502C16.6784 9.79419 16.8468 9.53431 16.5753 9.00914C16.4337 8.73533 16.025 8.53584 15.7518 8.60711C15.6482 8.6341 14.9892 9.03707 14.2873 9.50263C13.2063 10.2196 12.964 10.3491 12.7031 10.3491H12.3951V9.95605C12.3951 9.58813 12.4455 9.48768 13.1845 8.38267C14.116 6.98992 14.1683 6.87007 14.0096 6.49049C13.8472 6.10168 13.4835 5.92198 13.0948 6.03847C12.843 6.11388 12.7194 6.2493 12.1933 7.02598C11.8579 7.52103 11.5596 7.8992 11.5302 7.86634C11.5009 7.83348 11.2278 7.43224 10.9234 6.97482C10.4959 6.33238 10.3128 6.12311 10.1191 6.0556C9.81525 5.9496 9.83277 5.94881 9.52626 6.0822ZM32.0777 7.65222C31.7568 7.81956 31.6453 7.99597 31.6425 8.34066C31.6406 8.56925 31.694 8.69411 31.8686 8.86872L32.0973 9.09739H33.1622C34.3791 9.09739 34.5548 9.03527 34.699 8.55384C34.8139 8.17035 34.6352 7.80157 34.2581 7.64393C33.8818 7.48676 32.384 7.49247 32.0777 7.65222ZM25.2763 10.0466C24.9064 10.2615 24.9121 10.1226 24.9121 18.9544C24.9121 25.5264 24.8917 27.2574 24.8143 27.2779C23.58 27.6065 22.8584 27.9893 22.1343 28.6997C21.5681 29.2553 21.1514 29.9304 20.8628 30.7599C20.6831 31.2763 20.6562 31.4773 20.6578 32.293C20.6593 33.0972 20.6895 33.3223 20.8683 33.8637C21.5179 35.8303 23.2788 37.2121 25.3559 37.3853C27.3497 37.5516 29.376 36.388 30.2733 34.5617C30.6478 33.7996 30.7851 33.2017 30.7876 32.3239C30.7916 30.8569 30.3433 29.7773 29.2959 28.732C28.4779 27.9158 27.7872 27.5337 26.6918 27.2916L26.4767 27.2441V18.8417V10.4393L26.2742 10.1986C26.1068 9.99971 26.0151 9.95832 25.7461 9.96028C25.567 9.96161 25.3557 10.0004 25.2763 10.0466ZM31.8425 10.981C31.5506 11.3279 31.5649 11.7342 31.8797 12.036L32.1193 12.2658L33.7768 12.2902C35.711 12.3187 35.9741 12.269 36.2091 11.8305C36.3869 11.4989 36.3388 11.2074 36.0604 10.9291L35.8716 10.7402H33.9583H32.0451L31.8425 10.981ZM31.8686 14.0982C31.4578 14.509 31.6063 15.1497 32.1611 15.3607C32.4688 15.4777 33.9515 15.451 34.2581 15.323C34.6352 15.1653 34.8139 14.7965 34.699 14.413C34.5548 13.9316 34.3791 13.8695 33.1622 13.8695H32.0973L31.8686 14.0982ZM31.8686 17.2274C31.6085 17.4875 31.5565 17.94 31.7542 18.2223C31.9758 18.5386 32.2229 18.5731 34.0855 18.548C35.8221 18.5246 35.8555 18.5211 36.0499 18.3384C36.1585 18.2362 36.2694 18.053 36.2961 17.9313C36.3594 17.6432 36.1511 17.204 35.8961 17.0879C35.768 17.0294 35.0796 16.9987 33.899 16.9987H32.0973L31.8686 17.2274ZM26.671 28.9041C27.209 29.0421 27.7434 29.3617 28.1991 29.8182C30.2331 31.8558 29.1079 35.299 26.2476 35.7895C25.194 35.9701 24.0191 35.582 23.2293 34.7921C21.9092 33.472 21.8461 31.3059 23.0891 29.9765C24.0827 28.914 25.2946 28.5511 26.671 28.9041Z" fill="#003154"/>
<path fill-rule="evenodd" clip-rule="evenodd" d="M72.8892 0.598855C72.6218 0.727638 71.5067 2.46484 70.8325 3.80334C70.056 5.34475 69.9459 6.33161 70.4387 7.33271C70.7582 7.98179 71.2916 8.51185 71.9355 8.82024C72.4046 9.04497 72.5068 9.06366 73.2647 9.06366C73.9904 9.06366 74.1373 9.0395 74.5295 8.85567C75.6039 8.35203 76.3924 7.16569 76.3924 6.05325C76.3924 5.28321 75.7112 3.71162 74.6075 1.93532C73.7555 0.564059 73.4519 0.327918 72.8892 0.598855ZM73.8282 3.688C74.4212 4.72703 74.8286 5.68856 74.8286 6.04926C74.8286 6.35515 74.6393 6.81562 74.4143 7.05677C73.8947 7.61381 72.912 7.7078 72.3489 7.25428C71.6155 6.66362 71.5282 5.99961 72.0413 4.91453C72.4142 4.12604 73.1784 2.76916 73.2497 2.76924C73.2794 2.76932 73.5398 3.18272 73.8282 3.688ZM85.1209 6.06912C84.6089 6.25545 82.6085 9.80727 82.3743 10.946C81.9529 12.995 83.8016 14.9128 85.8763 14.5787C87.6428 14.2942 88.8223 12.6441 88.473 10.946C88.3278 10.2401 87.4137 8.39206 86.5708 7.10064C86.0748 6.34061 85.9025 6.13652 85.6963 6.06459C85.4008 5.96161 85.4167 5.96145 85.1209 6.06912ZM65.5032 6.84815C65.2617 6.93635 64.3772 8.16429 62.809 10.5884C58.5369 17.1925 56.1802 22.1793 56.0098 24.9758C55.9557 25.8651 56.1304 27.1902 56.4248 28.1221C57.3795 31.144 59.698 33.5108 62.6967 34.5245C63.7793 34.8904 64.5676 35.0106 65.9299 35.0174L67.1572 35.0236L67.552 35.6805C68.1025 36.5963 68.4859 37.073 69.2794 37.8281C70.6486 39.1311 72.2152 39.9476 74.1249 40.3536C75.0335 40.5468 76.9604 40.5492 77.8514 40.3582C79.8418 39.9316 81.3684 39.1269 82.8067 37.7464L83.5634 37.0202L83.987 37.2495C84.2199 37.3757 84.7792 37.6022 85.2298 37.7529C87.6635 38.5662 90.318 38.1811 92.4534 36.7048C94.0485 35.6022 95.2453 33.8885 95.7586 31.9722C95.9438 31.2806 95.9675 31.0503 95.9675 29.941C95.9675 28.8318 95.9438 28.6015 95.7586 27.9098C94.9746 24.9831 92.714 22.7236 89.8007 21.9551C89.1283 21.7777 88.8531 21.7483 87.8085 21.7421C86.7749 21.7359 86.4938 21.7617 85.8981 21.9174C85.0868 22.1295 84.1505 22.5099 83.5877 22.8562C83.3706 22.9899 83.1789 23.0992 83.1618 23.0992C83.1448 23.0992 82.9305 22.7241 82.6857 22.2656C82.075 21.1221 81.0799 19.4281 80.006 17.7039C78.7595 15.7027 76.6393 12.5607 76.4424 12.4228C76.3528 12.36 76.1419 12.3086 75.9738 12.3086C75.5535 12.3086 75.4328 12.4522 73.8556 14.8279L72.5308 16.8235L71.6823 15.3398C70.5924 13.4338 69.1853 11.1892 67.6063 8.83799C66.5981 7.33662 66.302 6.94941 66.0968 6.86364C65.8053 6.74189 65.7951 6.74158 65.5032 6.84815ZM86.0853 9.33733C87.0062 10.9852 87.1482 11.5771 86.7816 12.2411C86.5718 12.6212 86.2089 12.8957 85.7544 13.0181C84.7128 13.2986 83.6282 12.2274 83.9042 11.1908C84.0143 10.7768 84.5595 9.64408 85.0383 8.8344C85.4662 8.11081 85.3754 8.0671 86.0853 9.33733ZM66.9122 10.608C68.6402 13.2354 70.4468 16.2267 71.343 17.9446L71.5706 18.3807L71.1001 19.1566C69.0171 22.5921 67.4505 25.7453 66.7516 27.9094C66.2888 29.3422 66.2008 29.925 66.251 31.2268C66.2751 31.8528 66.3509 32.59 66.4193 32.8651C66.4877 33.1401 66.5222 33.3864 66.4959 33.4124C66.3976 33.5101 64.8338 33.4403 64.1944 33.3097C62.643 32.9927 61.3273 32.3082 60.1706 31.2163C58.9856 30.0977 58.2137 28.8058 57.8066 27.2595C57.6438 26.641 57.6051 26.3053 57.5972 25.445C57.5886 24.5133 57.6128 24.2986 57.8034 23.6164C58.5948 20.7817 61.0371 16.142 64.5272 10.8425C65.2141 9.79961 65.7858 8.94637 65.7977 8.94637C65.8096 8.94637 66.3111 9.69412 66.9122 10.608ZM77.0773 16.0423C78.8648 18.7599 80.0307 20.6771 81.2473 22.8993L81.9299 24.146L81.5265 24.5924C80.7223 25.4823 80.0076 26.9267 79.7037 28.2766C79.5073 29.1487 79.5247 30.8482 79.7388 31.7166C80.1161 33.2473 80.7439 34.4426 81.7191 35.4867L82.281 36.0884L81.8975 36.4819C80.2668 38.1553 77.8756 39.081 75.5323 38.9457C73.4899 38.8278 71.6842 38.0155 70.208 36.5504C68.9755 35.3273 68.2558 33.9847 67.9052 32.2543C67.7116 31.2988 67.7777 29.8652 68.0588 28.9245C68.7439 26.632 70.629 22.867 73.0503 18.955C74.0586 17.3262 75.9313 14.498 76.0016 14.498C76.0346 14.498 76.5187 15.1929 77.0773 16.0423ZM89.3333 23.4487C91.0064 23.8888 92.392 24.8674 93.3239 26.2673C95.6013 29.6879 94.292 34.2511 90.5331 35.994C89.5214 36.4631 88.957 36.5801 87.7304 36.5748C86.8173 36.571 86.5802 36.5419 85.9749 36.3596C83.6508 35.6599 81.9185 33.8872 81.3075 31.5831C81.0727 30.6974 81.0736 29.1781 81.3095 28.299C82.0114 25.684 84.0525 23.8259 86.7655 23.3321C87.2989 23.235 88.7758 23.3021 89.3333 23.4487ZM85.6798 24.9413C85.4119 25.0867 85.3064 25.2813 85.3064 25.6304C85.3064 25.8482 85.4823 26.1694 86.1665 27.2008C86.9001 28.3067 87.0266 28.5431 87.0266 28.8087V29.12H86.6353C86.2684 29.12 86.166 29.0681 85.0004 28.2915C83.6719 27.4063 83.4172 27.3146 83.0162 27.5773C82.9073 27.6486 82.7776 27.8301 82.7279 27.9805C82.5768 28.4386 82.7587 28.6852 83.7079 29.3085C84.1605 29.6057 84.5482 29.8772 84.5697 29.9118C84.591 29.9464 84.2043 30.2428 83.7103 30.5704C82.9842 31.0519 82.7956 31.216 82.7261 31.4265C82.621 31.7449 82.7751 32.1848 83.0416 32.3275C83.4576 32.55 83.6954 32.4585 85.068 31.5466C86.2514 30.7603 86.4125 30.6758 86.6849 30.6982C86.9797 30.7223 86.9882 30.7314 87.0114 31.0506C87.0333 31.3536 86.9701 31.4756 86.1708 32.6714C85.4713 33.7178 85.3064 34.0181 85.3064 34.2451C85.3064 34.6288 85.4259 34.8206 85.7494 34.9558C86.2524 35.1659 86.4809 35.0162 87.118 34.0587C87.4231 33.6002 87.6999 33.195 87.7333 33.1582C87.7666 33.1214 88.0497 33.4732 88.3624 33.9401C88.6751 34.407 88.9863 34.8313 89.0539 34.883C89.4321 35.1722 89.9892 35.0157 90.2069 34.5592C90.3797 34.1968 90.3156 34.049 89.3795 32.6493C88.6408 31.5448 88.5905 31.4445 88.5905 31.0767V30.6839H88.8983C89.1591 30.6839 89.4013 30.8133 90.4817 31.5299C91.1833 31.9952 91.8419 32.398 91.9456 32.425C92.2186 32.4962 92.6271 32.2968 92.7686 32.0232C93.0402 31.4979 92.8719 31.2386 91.7987 30.5291C91.3211 30.2132 90.958 29.9299 90.9919 29.8995C91.0258 29.8692 91.4264 29.5962 91.882 29.2931C92.4772 28.897 92.7388 28.6733 92.8113 28.4982C92.9434 28.1793 92.8408 27.8186 92.5578 27.6073C92.1589 27.3094 91.9267 27.3895 90.5762 28.2909C89.4332 29.0539 89.3044 29.12 88.9623 29.12H88.5905V28.7663C88.5905 28.4481 88.6698 28.2941 89.3795 27.2328C90.3156 25.8331 90.3797 25.6853 90.2069 25.3229C90.0287 24.9493 89.6657 24.7771 89.2923 24.889C89.0427 24.9637 88.9243 25.0946 88.4319 25.8392C88.1179 26.3142 87.8359 26.7183 87.8054 26.7371C87.7748 26.756 87.4927 26.3826 87.1786 25.9074C86.4752 24.8437 86.1939 24.6623 85.6798 24.9413Z" fill="#003154"/>
<path fill-rule="evenodd" clip-rule="evenodd" d="M128.616 0.551911C124.106 1.05133 120.226 2.93309 117.157 6.11014C114.873 8.47427 113.342 11.2054 112.545 14.3404C112.113 16.0429 111.998 17.0167 112 18.9665C112.002 20.8981 112.11 21.8027 112.539 23.5031C114.343 30.6437 120.329 36.0331 127.758 37.2049C129.009 37.4024 131.821 37.4017 133.035 37.2036C134.068 37.0351 135.285 36.7462 136.032 36.4919L136.58 36.3056L136.877 36.7875C137.277 37.4358 138.349 38.5345 139.065 39.029C143.201 41.8886 148.886 40.4308 151.111 35.9397C151.353 35.4515 151.627 34.741 151.745 34.2971C151.929 33.6041 151.952 33.3723 151.95 32.2635C151.949 31.1692 151.923 30.9166 151.746 30.2528C151.499 29.3248 151.052 28.3527 150.516 27.5774C150.022 26.8619 148.923 25.7899 148.274 25.3899L147.792 25.0925L147.946 24.6498C148.197 23.9301 148.55 22.4051 148.691 21.4349C148.855 20.3119 148.875 17.7205 148.729 16.659C147.863 10.3859 144.116 5.10418 138.616 2.40325C136.801 1.51164 134.97 0.936507 133.073 0.662198C132.011 0.508422 129.556 0.447725 128.616 0.551911ZM131.99 2.11267C136.571 2.56703 140.757 4.83738 143.6 8.4095C147 12.6828 148.138 18.304 146.655 23.5031C146.373 24.4915 146.449 24.4483 145.432 24.2057C144.499 23.983 142.795 24.0121 141.829 24.2672C139.518 24.8771 137.852 26.1427 136.542 28.283C136.459 28.4189 136.407 28.3868 135.888 27.8833C134.376 26.4151 133.295 24.5744 132.751 22.5403L132.577 21.8905L132.9 21.5673L133.223 21.2442L135.828 21.6898C138.63 22.1692 139.403 22.2266 140.234 22.0162C142.03 21.5617 143.487 20.0143 143.83 18.197C143.999 17.3032 143.995 13.5669 143.825 12.9924C143.583 12.1801 142.768 11.5765 141.913 11.5765C141.286 11.5765 140.776 11.8396 140.305 12.4063C138.523 14.5503 136.514 15.8934 134.104 16.5506L133.374 16.7496L133.059 16.411L132.743 16.0724L133.185 13.4521C133.657 10.6479 133.71 9.92372 133.503 9.10791C133.218 7.98752 132.41 6.8439 131.454 6.20979C131.209 6.04686 130.707 5.80579 130.34 5.67415L129.672 5.43481H127.09H124.509L124.091 5.66649C123.173 6.17514 122.806 7.30562 123.25 8.25893C123.389 8.55835 123.599 8.79519 124.09 9.20505C124.992 9.95938 125.911 10.9493 126.443 11.7414C127.016 12.5943 127.694 14.0089 127.937 14.86C128.266 16.0101 128.269 15.9542 127.875 16.2901L127.527 16.5859L124.962 16.1417C122.168 15.6577 121.427 15.6047 120.569 15.8274C119.285 16.1607 117.975 17.2221 117.404 18.3904C116.923 19.3762 116.871 19.7967 116.898 22.4816C116.921 24.719 116.93 24.848 117.091 25.1457C117.48 25.8652 118.084 26.2338 118.879 26.2379C119.638 26.2418 120.063 26.0154 120.647 25.298C122.141 23.4634 124.108 22.096 126.191 21.4451C127.449 21.0517 127.406 21.0518 127.765 21.4406L128.077 21.7786L127.631 24.3616C127.142 27.1892 127.092 27.912 127.322 28.7828C127.747 30.3945 129.056 31.734 130.727 32.2686C131.082 32.382 131.538 32.4121 133.323 32.4398L135.489 32.4736L135.538 32.916C135.602 33.4949 135.779 34.3978 135.882 34.6669L135.963 34.8803L135.32 35.0752C133.623 35.5898 132.403 35.7645 130.454 35.7717C128.713 35.7781 127.734 35.6626 126.219 35.272C120.648 33.8356 116.167 29.6378 114.384 24.1858C112.637 18.8444 113.582 13.216 116.986 8.68944C117.636 7.82498 119.017 6.40408 119.833 5.76074C123.307 3.01944 127.735 1.69068 131.99 2.11267ZM129.596 7.08066C130.56 7.3301 131.329 7.97805 131.771 8.91416C132.155 9.72708 132.146 10.3103 131.711 12.8264C131.514 13.9664 131.334 14.9884 131.311 15.0975C131.27 15.2947 131.265 15.2958 130.481 15.2873L129.692 15.2787L129.442 14.4632C128.858 12.5609 127.995 11.0065 126.72 9.55828C126.274 9.05183 125.952 8.74709 124.912 7.84665C124.599 7.57539 124.548 7.33276 124.756 7.10311C124.875 6.97124 125.051 6.96005 127.008 6.96005C128.667 6.96005 129.232 6.98641 129.596 7.08066ZM142.26 13.3131C142.363 13.4595 142.382 13.8046 142.382 15.4993C142.382 16.6806 142.346 17.6829 142.295 17.9262C142.081 18.9396 141.411 19.799 140.475 20.2585C139.616 20.681 139.099 20.672 136.294 20.1856C135.032 19.9668 133.99 19.7877 133.978 19.7877C133.967 19.7877 133.988 19.6029 134.025 19.3771C134.062 19.1513 134.071 18.788 134.045 18.5699L133.998 18.1733L134.455 18.0717C135.613 17.814 137.129 17.128 138.379 16.2949C139.326 15.6648 140.624 14.4811 141.298 13.633C141.616 13.2337 141.734 13.1392 141.915 13.1392C142.057 13.1392 142.183 13.2024 142.26 13.3131ZM131.034 16.938C132.536 17.3843 132.984 19.3935 131.817 20.4485C131.389 20.8348 131.008 20.9813 130.414 20.9878C129.782 20.9946 129.309 20.7846 128.862 20.2997C128.548 19.959 128.303 19.3574 128.303 18.9274C128.303 18.1202 128.94 17.2353 129.712 16.9685C130.24 16.7865 130.503 16.7804 131.034 16.938ZM124.431 17.6434C125.549 17.8323 126.536 18.0037 126.624 18.0242C126.772 18.059 126.783 18.1175 126.774 18.8596L126.766 19.6577L126.146 19.83C124.348 20.33 122.759 21.1806 121.2 22.4783C120.606 22.9721 120.176 23.4223 119.268 24.5004C119.054 24.7546 118.82 24.7753 118.604 24.559C118.455 24.4104 118.447 24.2983 118.447 22.3071C118.447 19.5577 118.556 19.1184 119.454 18.2217C120.154 17.5239 121.099 17.1678 122.006 17.2601C122.221 17.282 123.312 17.4545 124.431 17.6434ZM130.747 22.5587C131.022 22.5232 131.126 22.5379 131.149 22.6159C132.077 25.7771 133.241 27.6866 135.373 29.5464L135.835 29.9487L135.734 30.4217L135.634 30.8947H133.732C132.634 30.8947 131.655 30.8578 131.416 30.8074C129.681 30.4426 128.523 28.8049 128.772 27.069C128.863 26.436 129.373 23.4168 129.481 22.8699L129.56 22.4715L129.968 22.5391C130.192 22.5762 130.543 22.585 130.747 22.5587ZM145.398 25.8112C148.838 26.6879 151.004 30.1366 150.29 33.5983C150.003 34.9881 149.389 36.0884 148.341 37.0897C145.747 39.568 141.772 39.5629 139.146 37.078C138.275 36.2533 137.617 35.1307 137.289 33.906C137.055 33.0363 137.052 31.5023 137.281 30.6527C137.996 28.0068 140.131 26.0672 142.776 25.6621C143.475 25.555 144.657 25.6222 145.398 25.8112ZM141.704 27.2543C141.405 27.3842 141.287 27.5832 141.287 27.9581C141.287 28.1851 141.452 28.4855 142.152 29.5323C142.951 30.7284 143.014 30.8505 142.992 31.1536C142.969 31.4781 142.965 31.4815 142.641 31.5051C142.338 31.5271 142.216 31.4638 141.019 30.6643C139.939 29.9422 139.677 29.7996 139.429 29.7996C139.053 29.7996 138.82 29.9617 138.708 30.3015C138.55 30.7804 138.722 31.0152 139.709 31.6682C140.188 31.9848 140.564 32.269 140.545 32.2998C140.526 32.3305 140.141 32.5989 139.688 32.8962C138.738 33.5197 138.556 33.7664 138.708 34.2246C138.757 34.3751 138.887 34.5568 138.997 34.6284C139.404 34.8951 139.629 34.8145 140.969 33.9217C142.147 33.1367 142.249 33.0848 142.616 33.0848H143.008V33.3962C143.008 33.6618 142.881 33.8984 142.147 35.0046C141.413 36.1108 141.287 36.3474 141.287 36.6131C141.287 37.1542 141.816 37.5105 142.313 37.3044C142.488 37.2323 142.719 36.9572 143.147 36.3158C143.472 35.8269 143.763 35.4544 143.793 35.4878C143.823 35.5212 144.096 35.9216 144.399 36.3773C145.009 37.2937 145.239 37.4649 145.688 37.3361C146.014 37.2426 146.32 36.8017 146.262 36.5094C146.239 36.3925 145.849 35.7415 145.396 35.0627C144.638 33.9276 144.572 33.7987 144.572 33.4567V33.0848H144.944C145.286 33.0848 145.415 33.1508 146.55 33.9085C147.229 34.3616 147.88 34.7513 147.997 34.7746C148.289 34.8328 148.73 34.5267 148.823 34.2005C148.952 33.7516 148.781 33.5214 147.865 32.9117C147.409 32.6084 147.008 32.3357 146.975 32.3058C146.942 32.2758 147.314 31.985 147.803 31.6595C148.444 31.2322 148.72 31.0003 148.792 30.8261C148.998 30.3288 148.641 29.7996 148.1 29.7996C147.835 29.7996 147.598 29.9261 146.492 30.66C145.386 31.3938 145.149 31.5204 144.883 31.5204H144.572V31.1289C144.572 30.7617 144.624 30.6595 145.409 29.4813C146.302 28.1416 146.382 27.9164 146.116 27.5093C146.044 27.4 145.862 27.27 145.712 27.2203C145.254 27.0691 145.007 27.2511 144.383 28.2006C144.086 28.6533 143.818 29.0393 143.787 29.0583C143.756 29.0773 143.472 28.701 143.155 28.2222C142.728 27.5756 142.515 27.3243 142.327 27.2459C142.022 27.1185 142.016 27.1185 141.704 27.2543Z" fill="#003154"/>
<path fill-rule="evenodd" clip-rule="evenodd" d="M186.093 0.547852C179.987 1.17418 174.592 4.45094 171.224 9.5786C166.19 17.2432 167.137 27.6674 173.464 34.2338C174.032 34.8231 174.246 34.9375 174.614 34.8486C174.911 34.777 177.893 31.7867 177.934 31.5201C177.99 31.1579 177.851 30.8847 177.329 30.3322C176.802 29.7735 175.885 28.5891 175.885 28.4672C175.885 28.4304 176.218 28.2041 176.626 27.9642C177.034 27.7243 177.403 27.4605 177.447 27.378C177.607 27.0806 177.543 26.6736 177.299 26.4296C176.975 26.1054 176.674 26.1266 176.001 26.5211C174.951 27.1367 175.074 27.1356 174.789 26.5319C174.193 25.2684 173.655 23.2505 173.561 21.9272L173.516 21.2865L174.473 21.2602C175.41 21.2343 175.433 21.2293 175.618 21.0143C175.748 20.8638 175.807 20.6993 175.807 20.4907C175.807 20.2821 175.748 20.1176 175.618 19.9671C175.433 19.7521 175.41 19.747 174.473 19.7212L173.516 19.6948L173.561 19.0542C173.655 17.7215 174.176 15.7785 174.774 14.5253L175.064 13.9182L175.807 14.3489C176.687 14.8586 176.956 14.8952 177.299 14.5518C177.543 14.3078 177.607 13.9008 177.447 13.6033C177.403 13.5209 177.034 13.2571 176.626 13.0172C176.218 12.7773 175.885 12.5607 175.885 12.5357C175.885 12.3567 176.952 11.0537 177.762 10.2435C178.573 9.43326 179.876 8.36614 180.055 8.36614C180.08 8.36614 180.296 8.69961 180.536 9.10723C180.776 9.51485 181.04 9.88445 181.122 9.92857C181.42 10.0878 181.827 10.0241 182.071 9.78018C182.414 9.4367 182.378 9.16769 181.868 8.28792L181.437 7.5448L182.044 7.25499C183.297 6.65666 185.24 6.13648 186.573 6.04238L187.214 5.99717L187.24 6.95391C187.266 7.89102 187.271 7.91456 187.486 8.09933C187.784 8.35511 188.236 8.35511 188.533 8.09933C188.748 7.91456 188.753 7.89102 188.779 6.95391L188.805 5.99717L189.446 6.04238C190.779 6.13648 192.722 6.65666 193.975 7.25499L194.582 7.5448L194.151 8.28792C193.642 9.16769 193.605 9.4367 193.948 9.78018C194.192 10.0241 194.599 10.0878 194.897 9.92857C194.979 9.88445 195.243 9.51485 195.483 9.10723C195.723 8.69961 195.94 8.36614 195.965 8.36614C196.144 8.36614 197.447 9.43326 198.257 10.2435C199.067 11.0537 200.134 12.3567 200.134 12.5357C200.134 12.5607 199.801 12.7773 199.393 13.0172C198.985 13.2571 198.616 13.5209 198.572 13.6033C198.412 13.9008 198.476 14.3078 198.72 14.5518C199.062 14.8941 199.332 14.858 200.212 14.3522L200.955 13.9252L201.245 14.5288C201.841 15.7701 202.364 17.7195 202.458 19.0542L202.503 19.6948L201.546 19.7212C200.609 19.747 200.586 19.7521 200.401 19.9671C200.145 20.2647 200.145 20.7167 200.401 21.0143C200.586 21.2293 200.609 21.2343 201.546 21.2602L202.503 21.2865L202.458 21.9272C202.409 22.6131 202.119 24.1666 202.02 24.267C201.987 24.3004 201.717 24.2681 201.419 24.1952C200.697 24.0187 198.907 24.0164 198.132 24.1912C196.443 24.5722 195.02 25.3653 193.874 26.5655C192.994 27.4857 192.475 28.3062 192.072 29.4103C191.191 31.8244 191.432 34.333 192.758 36.5511C193.226 37.3343 194.315 38.4892 195.09 39.0254C199.233 41.8891 204.916 40.4341 207.143 35.9397C207.385 35.4514 207.659 34.7409 207.777 34.297C207.96 33.604 207.984 33.3721 207.982 32.2632C207.981 31.1622 207.955 30.9175 207.773 30.2294C207.654 29.7782 207.382 29.0768 207.132 28.5718L206.697 27.6964L206.94 27.0073C208.582 22.3572 208.336 16.8434 206.283 12.2921C204.533 8.41378 201.523 5.12271 197.793 3.01031C195.782 1.87146 193.242 1.01711 190.786 0.653531C189.83 0.51187 187.053 0.44937 186.093 0.547852ZM190.708 2.22378C194.666 2.83423 198.202 4.62749 201.037 7.46298C202.512 8.93748 203.586 10.4213 204.518 12.2712C205.387 13.996 205.982 15.8834 206.284 17.8702C206.48 19.1631 206.482 21.8118 206.288 23.072C206.138 24.048 205.929 24.9958 205.68 25.8348L205.522 26.3683L205.175 26.0484C204.86 25.7588 203.771 25.0012 203.574 24.9356C203.523 24.9187 203.553 24.6725 203.654 24.2649C204.43 21.1478 204.183 17.6282 202.974 14.5849C201.233 10.2005 197.565 6.71721 193.139 5.24529C189.06 3.88898 184.78 4.17238 180.93 6.05372C177.078 7.93623 174.114 11.3245 172.75 15.4058C171.006 20.6203 172.058 26.387 175.528 30.6485L176.061 31.3024L175.25 32.1156C174.805 32.5629 174.413 32.9198 174.38 32.9088C174.24 32.8622 173.163 31.4886 172.588 30.6227C171.133 28.4343 170.134 25.8041 169.731 23.0996C169.539 21.8098 169.541 19.0808 169.736 17.8311C170.836 10.749 175.638 5.11755 182.478 2.88664C183.643 2.50679 184.778 2.2833 186.602 2.07515C187.185 2.00851 189.965 2.10918 190.708 2.22378ZM187.489 10.1166L187.273 10.3027L186.518 15.9247L185.763 21.5467L185.263 22.0551C184.465 22.8666 184.098 23.7289 184.098 24.7929C184.098 26.6379 185.371 28.2261 187.173 28.6293C187.744 28.757 188.797 28.6893 189.352 28.4891C190.868 27.943 191.921 26.4276 191.921 24.7929C191.921 23.7289 191.554 22.8666 190.756 22.0551L190.256 21.5467L189.501 15.9247L188.746 10.3027L188.53 10.1166C188.382 9.98974 188.217 9.9306 188.01 9.9306C187.802 9.9306 187.637 9.98974 187.489 10.1166ZM188.309 18.8284C188.447 19.8933 188.56 20.7997 188.559 20.8427C188.558 20.8872 188.321 20.9209 188.01 20.9209C187.698 20.9209 187.461 20.8872 187.46 20.8427C187.454 20.6032 187.97 16.8924 188.01 16.8924C188.035 16.8924 188.17 17.7636 188.309 18.8284ZM189.061 22.7142C190.089 23.2176 190.578 24.3821 190.243 25.534C190.071 26.1264 189.418 26.8109 188.837 27.0085C187.92 27.3201 187.036 27.1156 186.354 26.4351C185.868 25.9494 185.662 25.4624 185.663 24.7983C185.665 23.0607 187.486 21.9438 189.061 22.7142ZM201.43 25.8105C204.87 26.6873 207.036 30.1362 206.322 33.5981C206.035 34.988 205.421 36.0884 204.373 37.0897C201.778 39.5682 197.803 39.5631 195.177 37.0781C194.306 36.2533 193.648 35.1306 193.32 33.9059C193.086 33.0361 193.083 31.502 193.312 30.6524C194.027 28.0063 196.162 26.0666 198.807 25.6614C199.506 25.5544 200.688 25.6215 201.43 25.8105ZM197.735 27.2537C197.436 27.3837 197.318 27.5827 197.318 27.9575C197.318 28.1846 197.483 28.485 198.183 29.5318C198.982 30.7281 199.046 30.8501 199.024 31.1532C199 31.4778 198.997 31.4812 198.672 31.5048C198.369 31.5268 198.247 31.4635 197.051 30.6639C195.97 29.9418 195.708 29.7992 195.46 29.7992C195.084 29.7992 194.851 29.9613 194.739 30.3012C194.581 30.78 194.753 31.0149 195.741 31.6679C196.219 31.9845 196.596 32.2688 196.577 32.2995C196.558 32.3302 196.172 32.5987 195.719 32.896C194.769 33.5196 194.587 33.7663 194.739 34.2245C194.788 34.375 194.918 34.5567 195.028 34.6283C195.435 34.895 195.66 34.8144 197 33.9215C198.178 33.1365 198.28 33.0846 198.647 33.0846H199.039V33.396C199.039 33.6617 198.912 33.8982 198.179 35.0045C197.445 36.1108 197.318 36.3474 197.318 36.6131C197.318 37.1543 197.847 37.5106 198.345 37.3045C198.519 37.2324 198.751 36.9572 199.178 36.3158C199.504 35.8269 199.794 35.4543 199.824 35.4878C199.854 35.5212 200.127 35.9215 200.43 36.3773C201.04 37.2938 201.27 37.465 201.719 37.3362C202.045 37.2426 202.352 36.8018 202.293 36.5094C202.27 36.3925 201.88 35.7415 201.427 35.0627C200.67 33.9275 200.603 33.7986 200.603 33.4565V33.0846H200.975C201.317 33.0846 201.446 33.1507 202.582 33.9084C203.26 34.3615 203.911 34.7512 204.028 34.7745C204.321 34.8327 204.762 34.5266 204.855 34.2004C204.984 33.7514 204.813 33.5212 203.896 32.9114C203.44 32.6082 203.04 32.3355 203.007 32.3055C202.973 32.2756 203.346 31.9847 203.835 31.6592C204.476 31.2319 204.751 31 204.823 30.8258C205.03 30.3284 204.673 29.7992 204.132 29.7992C203.866 29.7992 203.63 29.9257 202.523 30.6596C201.417 31.3935 201.181 31.5201 200.915 31.5201H200.603V31.1286C200.603 30.7613 200.655 30.6591 201.44 29.4809C202.333 28.141 202.414 27.9158 202.147 27.5088C202.076 27.3995 201.894 27.2694 201.743 27.2197C201.285 27.0685 201.038 27.2505 200.415 28.2001C200.118 28.6528 199.849 29.0388 199.818 29.0578C199.788 29.0768 199.503 28.7006 199.187 28.2217C198.759 27.575 198.546 27.3238 198.358 27.2453C198.053 27.1179 198.047 27.118 197.735 27.2537Z" fill="#003154"/>
</svg>
