<svg width="200" height="32" viewBox="0 0 200 32" fill="none" xmlns="http://www.w3.org/2000/svg">
<path fill-rule="evenodd" clip-rule="evenodd" d="M53.5418 0.00317383C40.945 0.00317383 35.3302 7.64011 35.3302 16.0556C35.3302 24.4525 41.8018 31.9967 53.5418 31.9967C65.9746 31.9967 71.8993 24.4525 71.8993 16.0556C71.8993 7.64011 65.9746 0.00317383 53.5418 0.00317383ZM58.9925 17.8906C59.2113 23.3403 57.8258 28.8456 55.0367 29.4758C52.0834 29.068 48.9479 23.2847 48.6197 14.48C48.4192 9.36398 49.2943 3.67335 52.3751 2.50557C54.9637 2.98751 58.6462 8.41863 58.9925 17.8906ZM91.6053 0.744617H78.8262V31.2553H100.228V27.7334L91.6053 27.7519V0.744617ZM118.859 23.3403H109.252C109.252 23.3403 107.775 30.1431 107.501 31.2553H103.783L110.601 0.744617H127.554L134.281 31.2553H120.627L118.859 23.3403ZM118.166 20.1891L114.72 4.76698H113.408L109.962 20.1891H118.166ZM183.137 0.744635H167.022V31.2553H179.801V20.4487L181.515 20.6155L186.236 31.2553H200L193.346 20.9121L192.817 19.9482C196.354 18.2614 198.541 15.2771 198.651 10.1796C198.724 7.62158 197.958 4.98943 196.08 3.22849C193.197 0.517607 188.904 0.620973 185.094 0.712694C184.423 0.728845 183.768 0.744635 183.137 0.744635ZM183.283 18.2799C183.283 18.2799 180.512 18.0946 179.819 17.9648V3.20996C185.908 3.20996 185.908 8.34449 185.908 10.2352C185.908 14.8136 183.283 18.2799 183.283 18.2799ZM155.354 31.2553H142.575V0.744617H155.354V31.2553ZM31.1184 9.92006C31.1184 1.41192 23.7718 0.744617 16.2428 0.744617H0V31.2553H12.7974V22.7101C14.0188 22.9696 15.6048 23.1179 17.2637 23.1179C24.1181 23.1179 31.1184 20.7452 31.1184 9.92006ZM16.2428 20.2077C16.2428 20.2077 13.563 20.0594 12.7974 19.8926V3.20994C18.8315 3.20994 18.8315 9.01178 18.8315 11.162C18.8315 16.9268 16.2428 20.2077 16.2428 20.2077Z" fill="white"/>
</svg>
