<svg width="202" height="32" viewBox="0 0 202 32" fill="none" xmlns="http://www.w3.org/2000/svg">
<path fill-rule="evenodd" clip-rule="evenodd" d="M53.9701 0.00317383C41.2725 0.00317383 35.6128 7.64011 35.6128 16.0556C35.6128 24.4525 42.1362 31.9967 53.9701 31.9967C66.5024 31.9967 72.4745 24.4525 72.4745 16.0556C72.4745 7.64011 66.5024 0.00317383 53.9701 0.00317383ZM59.4645 17.8906C59.685 23.3403 58.2884 28.8456 55.477 29.4758C52.5001 29.068 49.3395 23.2847 49.0087 14.48C48.8066 9.36398 49.6886 3.67335 52.7941 2.50557C55.4035 2.98751 59.1154 8.41863 59.4645 17.8906ZM92.3382 0.744617H79.4568V31.2553H101.03V27.7334L92.3382 27.7519V0.744617ZM119.81 23.3403H110.126C110.126 23.3403 108.637 30.1431 108.361 31.2553H104.613L111.485 0.744617H128.575L135.355 31.2553H121.592L119.81 23.3403ZM119.111 20.1891L115.638 4.76698H114.315L110.842 20.1891H119.111ZM184.602 0.744635H168.358V31.2553H181.239V20.4487L182.967 20.6155L187.726 31.2553H201.6L194.893 20.9121L194.36 19.9482C197.925 18.2614 200.13 15.2771 200.24 10.1796C200.313 7.62158 199.542 4.98943 197.649 3.22849C194.743 0.517607 190.415 0.620973 186.575 0.712694C185.899 0.728845 185.238 0.744635 184.602 0.744635ZM184.749 18.2799C184.749 18.2799 181.956 18.0946 181.258 17.9648V3.20996C187.395 3.20996 187.395 8.34449 187.395 10.2352C187.395 14.8136 184.749 18.2799 184.749 18.2799ZM156.597 31.2553H143.716V0.744617H156.597V31.2553ZM31.3673 9.92006C31.3673 1.41192 23.9619 0.744617 16.3728 0.744617H0V31.2553H12.8998V22.7101C14.1309 22.9696 15.7296 23.1179 17.4018 23.1179C24.3111 23.1179 31.3673 20.7452 31.3673 9.92006ZM16.3728 20.2077C16.3728 20.2077 13.6715 20.0594 12.8998 19.8926V3.20994C18.9821 3.20994 18.9821 9.01178 18.9821 11.162C18.9821 16.9268 16.3728 20.2077 16.3728 20.2077Z" fill="#003154"/>
</svg>
