<svg width="40" height="40" viewBox="0 0 40 40" fill="none" xmlns="http://www.w3.org/2000/svg">
<path d="M20 8C13.3694 8 8 13.3734 8 20.009C8 25.0939 11.1532 29.4395 15.6216 31.1886C15.5135 30.2329 15.4234 28.7904 15.6577 27.7446C15.8739 26.8069 17.0631 21.7761 17.0631 21.7761C17.0631 21.7761 16.7027 21.0548 16.7027 19.991C16.7027 18.314 17.6757 17.0699 18.8649 17.0699C19.8919 17.0699 20.3784 17.8452 20.3784 18.7648C20.3784 19.7926 19.7297 21.3434 19.3874 22.7678C19.0991 23.9579 19.982 24.9316 21.1712 24.9316C23.2973 24.9316 24.9369 22.6777 24.9369 19.432C24.9369 16.565 22.8649 14.5455 19.9279 14.5455C16.5225 14.5455 14.5045 17.1059 14.5045 19.7566C14.5045 20.7844 14.9009 21.9023 15.4054 22.4974C15.4955 22.6236 15.5135 22.7137 15.4955 22.84C15.4054 23.2186 15.2072 24.0301 15.1712 24.1923C15.1171 24.4087 14.991 24.4628 14.7748 24.3546C13.2793 23.6514 12.3423 21.4696 12.3423 19.7025C12.3423 15.9159 15.0991 12.4358 20.2703 12.4358C24.4324 12.4358 27.6577 15.411 27.6577 19.3599C27.6577 23.4891 25.045 26.8249 21.4414 26.8249C20.2342 26.8249 19.0811 26.1938 18.6847 25.4545C18.6847 25.4545 18.0901 27.7446 17.9459 28.3035C17.6757 29.3494 16.9369 30.6476 16.4505 31.4591C17.5676 31.8017 18.7568 32 20 32C26.6306 32 32 26.6266 32 19.991C32 13.3734 26.6306 8 20 8Z" fill="white"/>
</svg>
