<svg width="40" height="40" viewBox="0 0 40 40" fill="none" xmlns="http://www.w3.org/2000/svg">
<path d="M9.4714 18.71C9.4714 18.71 20.086 14.3197 23.7673 12.7737C25.1786 12.1554 29.9643 10.1765 29.9643 10.1765C29.9643 10.1765 32.1732 9.31088 31.9891 11.4133C31.9277 12.279 31.4369 15.309 30.9461 18.5864C30.2098 23.2242 29.4121 28.2948 29.4121 28.2948C29.4121 28.2948 29.2894 29.717 28.2464 29.9644C27.2033 30.2117 25.4853 29.0987 25.1786 28.8513C24.9331 28.6658 20.5768 25.8831 18.9816 24.5227C18.5521 24.1517 18.0613 23.4097 19.0429 22.544C21.2518 20.5033 23.8901 17.968 25.4853 16.3603C26.2216 15.6182 26.9579 13.8868 23.8901 15.9892C19.5338 19.0193 15.2389 21.8638 15.2389 21.8638C15.2389 21.8638 14.2572 22.4821 12.4165 21.9255C10.5757 21.3691 8.42828 20.627 8.42828 20.627C8.42828 20.627 6.95582 19.6995 9.4714 18.71Z" fill="white"/>
</svg>
