<svg width="40" height="40" viewBox="0 0 40 40" fill="none" xmlns="http://www.w3.org/2000/svg">
<path d="M30.98 13.34C30.329 12.182 29.6225 11.969 28.184 11.888C26.747 11.7905 23.1335 11.75 20.003 11.75C16.8665 11.75 13.2515 11.7905 11.816 11.8865C10.3805 11.969 9.6725 12.1805 9.0155 13.34C8.345 14.4965 8 16.4885 8 19.9955C8 19.9985 8 20 8 20C8 20.003 8 20.0045 8 20.0045V20.0075C8 23.4995 8.345 25.5065 9.0155 26.651C9.6725 27.809 10.379 28.019 11.8145 28.1165C13.2515 28.2005 16.8665 28.25 20.003 28.25C23.1335 28.25 26.747 28.2005 28.1855 28.118C29.624 28.0205 30.3305 27.8105 30.9815 26.6525C31.658 25.508 32 23.501 32 20.009C32 20.009 32 20.0045 32 20.0015C32 20.0015 32 19.9985 32 19.997C32 16.4885 31.658 14.4965 30.98 13.34ZM17 24.5V15.5L24.5 20L17 24.5Z" fill="white"/>
</svg>
